<?xml version="1.0" encoding="UTF-8" standalone="no"?>
<svg
   xmlns:dc="http://purl.org/dc/elements/1.1/"
   xmlns:cc="http://creativecommons.org/ns#"
   xmlns:rdf="http://www.w3.org/1999/02/22-rdf-syntax-ns#"
   xmlns:svg="http://www.w3.org/2000/svg"
   xmlns="http://www.w3.org/2000/svg"
   id="svg8"
   version="1.1"
   viewBox="0 0 210 297"
   height="297mm"
   width="210mm">
  <defs
     id="defs2" />
  <metadata
     id="metadata5">
    <rdf:RDF>
      <cc:Work
         rdf:about="">
        <dc:format>image/svg+xml</dc:format>
        <dc:type
           rdf:resource="http://purl.org/dc/dcmitype/StillImage" />
        <dc:title></dc:title>
      </cc:Work>
    </rdf:RDF>
  </metadata>
  <g
     id="layer1">
    <path
       transform="scale(0.26458333)"
       id="path3801"
       d=""
       style="fill:#ff6600;stroke-width:1.42857146" />
    <g
       id="g3974">
      <path
         style="fill:#070707;stroke-width:0.70570588"
         d="M 207.5332 256.35156 C 206.37619 256.44109 205.51708 257.19678 204.44141 258.79297 C 203.6138 260.02105 198.39567 274.62641 192.8457 291.25 C 178.28379 334.86647 172.53632 349.9742 158.24219 382.20312 C 135.12437 434.32682 129.42201 451.32953 126.20117 477.74219 C 125.04638 487.21194 123.20214 492.26158 119.72656 495.4707 L 117.85938 497.19531 L 118.35156 480.25781 C 118.62267 470.94252 119.11215 454.57709 119.43945 443.89062 C 120.38279 413.08551 119.00663 398.86558 113.3418 380.88281 C 106.60827 359.50752 88.836691 324.25129 67.824219 290.58008 C 50.069132 262.12862 40.790731 252.81609 35.753906 258.39062 C 33.748565 260.61008 34.195704 268.21515 37.53125 288.6582 C 42.445203 318.77484 44.781294 341.0648 48.148438 389.92969 C 50.890598 429.72369 51.459431 436.35644 53.222656 449.20898 C 56.545466 473.42937 62.321889 488.02651 79.193359 514.83984 C 92.490191 535.97209 92.615342 536.22047 95.585938 547.17773 C 100.68085 565.97072 100.64862 566.89716 94.679688 573.48828 C 85.830264 583.2601 82.044922 597.82175 82.044922 622.0918 C 82.044922 638.19788 82.829989 643.36504 86.357422 650.45898 C 90.427746 658.64476 95.911473 663.76362 105.47852 668.31055 C 114.98546 672.8289 127.32717 677.02309 137.62695 679.23438 C 147.79592 681.41754 149.08789 681.77379 149.08789 682.39258 C 149.08789 683.69485 143.05103 692.55161 131.58984 708.07031 C 92.13562 761.49204 91.032615 763.40534 90.921875 778.52734 C 90.86779 785.91265 90.905169 786.09134 93.052734 788.75977 C 94.254964 790.25351 96.773074 792.42932 98.648438 793.59375 L 102.05859 795.71094 L 114.10547 795.69141 C 131.67555 795.66525 129.31752 796.64619 163.12891 775.27734 C 180.68451 764.1822 196.55966 754.65622 209.7168 747.32031 C 217.21583 743.13913 217.82267 742.92061 218.53711 744.14453 C 218.95917 744.86748 221.07402 747.71376 223.23633 750.4707 C 232.92326 762.82152 251.26817 776.67781 264.88672 781.92969 C 277.81875 786.91681 301.81328 791.59444 330.80664 794.7793 C 342.10293 796.0197 384.74522 796.02255 397.49609 794.7832 C 434.44657 791.19174 449.89595 788.01309 463.47852 781.21289 C 474.15795 775.86614 482.52639 769.66992 492.45898 759.75195 C 503.45348 748.77364 511.81108 737.30219 523.12109 717.66406 L 526.20703 712.30664 L 536.83203 708.375 C 550.26757 703.40307 555.40806 701.75701 561.58203 700.44922 C 566.50067 699.4072 572.51172 699.0322 572.51172 699.76758 C 572.51172 701.86393 564.12674 713.983 548.64844 734.25586 C 534.04619 753.38125 527.97717 762.17536 524.76562 768.87109 C 522.08307 774.46393 521.93548 775.64242 523.57617 778.41992 C 526.05452 782.61539 533.85996 785.25044 558.04297 790.05664 C 576.0156 793.62856 587.53315 795.14963 602.85547 795.97266 L 602.85742 795.97266 C 618.3584 796.8054 619.8013 796.80908 644.14062 796.07227 C 683.80284 794.87159 703.15732 791.82674 717.73242 784.49805 C 720.33965 783.18708 724.32684 781.73222 726.5918 781.26367 C 740.88593 778.30676 753.64442 770.97202 757.44141 763.5293 C 759.3602 759.76829 760.40396 750.04571 759.54102 743.96094 C 757.26922 727.94285 745.35707 712.84818 728.11914 704.14453 C 718.25465 699.16383 704.75784 697.39512 694.17773 699.69727 C 684.52312 701.79804 668.36229 708.18585 646.17578 718.66992 C 627.24878 727.61372 616.58684 731.8418 612.96484 731.8418 C 610.9959 731.8418 610.75981 729.62064 612.32812 725.86719 C 613.49611 723.07177 615.69515 721.82287 621.55859 720.62109 C 638.16274 717.21782 663.86176 706.26494 679.80078 695.79883 C 700.78608 682.01916 728.75593 654.57303 742.67578 634.10156 C 747.39377 627.16288 752.48096 616.80664 754.63477 609.75586 C 755.88004 605.67922 756.26103 602.67824 756.29883 596.69922 C 756.35133 588.15866 755.74964 586.32707 750.71875 579.73633 C 748.97877 577.45678 748.02068 575.13005 747.17773 571.13086 C 746.54224 568.11582 745.51718 564.45216 744.89844 562.99023 C 743.42091 559.49931 737.61246 553.74931 733.60352 551.80859 C 730.54958 550.33023 729.86141 550.28597 717.50391 550.74609 C 690.77898 551.74117 685.21444 552.80841 675.56055 558.79492 C 669.49218 562.55801 660.41387 571.33153 655.58008 578.10547 C 650.25283 585.57094 647.52752 592.76397 645.86328 603.75586 C 642.68542 624.74456 638.86084 634.63874 629.63672 645.72266 C 625.59901 650.57436 622.70208 652.05336 620.0332 650.625 C 617.31534 649.17049 602.6472 634.51401 594.31641 624.92773 C 588.66741 618.42736 586.05748 615.99405 583.08594 614.45703 C 579.37686 612.53832 578.90423 612.46881 571.80469 612.80859 C 563.65244 613.19879 559.32539 614.42323 551.51367 618.54492 C 539.97799 624.63144 526.65618 637.1372 514.26953 653.50781 C 508.88389 660.62561 505.77692 664.10553 504.05859 664.94141 C 502.70012 665.60226 491.46092 668.42312 479.08398 671.21094 C 456.67573 676.25827 444.86175 677.93887 443.80469 676.22852 C 443.54851 675.81401 442.69823 671.88118 441.91602 667.49023 C 440.40292 658.99673 436.56383 643.72157 434.31641 637.25 L 432.95898 633.33984 L 435.79297 629.83984 C 438.89959 626.00109 441.58936 620.53681 442.33789 616.54688 C 442.9778 613.13585 445.20215 611.37883 455.57227 606.0918 C 465.8756 600.83886 469.09447 597.8755 471.92383 591.04688 C 477.20054 578.31176 480.8977 570.60874 485.57422 562.60352 C 488.36668 557.82332 490.97475 552.58309 491.36914 550.95898 C 493.03516 544.09812 489.57197 540.93712 481.0957 541.58398 C 474.94985 542.05302 470.89951 543.43075 466.19336 546.65234 C 459.61653 551.15459 457.11342 556.72063 455.90234 569.5293 C 455.48032 573.99288 454.76562 578.05432 454.31445 578.55469 C 453.31923 579.65854 440.29744 587.08947 439.92969 586.76367 C 439.78622 586.63657 440.7796 585.01035 442.13672 583.14844 C 448.83756 573.95511 452.09984 562.04675 449.67188 555.63867 C 448.7194 553.12479 446.26383 550.47656 444.88672 550.47656 C 443.35034 550.47656 441.25 548.35408 441.25 546.80273 C 441.25 544.54367 439.21596 541.38155 437.03906 540.25586 C 434.12505 538.74892 428.17718 538.92418 423.00195 540.67188 C 418.78438 542.09611 418.53704 542.10732 417.2207 540.91602 C 416.46416 540.23135 415.84375 539.33344 415.84375 538.91992 C 415.84375 538.50644 414.25017 535.57017 412.30273 532.39453 C 409.48695 527.80297 408.47619 525.28066 407.36523 520.08203 C 406.59689 516.48653 404.97018 509.77171 403.75 505.16016 L 401.53125 496.77539 L 396.83203 497.23828 L 392.13281 497.70312 L 388.26562 494.16797 L 384.39648 490.63281 L 381.44727 493.38477 C 378.19483 496.41863 375.69821 496.94644 375.11719 494.72461 C 374.91419 493.94833 374.25086 493.31445 373.64258 493.31445 C 371.94999 493.31445 365.77269 500.11382 364.16602 503.74609 C 362.34629 507.85992 362.82835 514.55889 365.4668 521.83398 C 367.25939 526.7767 368.73176 532.26621 369.55078 537.06836 L 369.97266 539.54102 L 361.67969 539.53906 C 353.79442 539.53778 353.203 539.64025 349.58398 541.64453 C 344.91366 544.23105 342.25781 547.95128 342.25781 551.90625 C 342.25781 555.53112 343.35152 556.74261 351.27148 561.89062 C 358.93822 566.87405 364.13481 571.81774 366.74805 576.61914 C 368.57352 579.97343 368.67447 580.61056 368.39062 587.03516 C 368.22444 590.79839 367.50075 598.28311 366.7832 603.66992 C 365.02637 616.85889 365.73552 622.26896 370.39844 631.24609 C 373.52071 637.25736 373.65991 637.76882 373.27148 641.83008 C 372.78702 646.89548 370.93416 651.61635 364.00391 665.43555 C 356.12064 681.15517 346.17914 697.2672 344.37109 697.25586 C 341.80109 697.23859 330.05002 695.68344 325.16211 694.71289 C 317.48423 693.18838 312.85809 691.08391 295.16797 681.06445 C 269.40282 666.47139 262.48859 663.63738 248.5918 661.98047 C 239.28637 660.87099 237.49367 660.22545 236.95898 657.79102 C 236.00231 653.43541 240.56699 644.43421 250.04688 631.98438 C 259.16393 620.01106 264.67473 610.19218 270.53516 595.47266 C 274.56757 585.34451 275.62772 584.2902 276.42773 589.625 C 277.55785 597.16138 279.80217 592.94022 280.16992 582.58594 C 280.52297 572.64419 280.6059 572.40207 282.93359 574.54102 L 284.77734 576.23438 L 284.30078 570.28906 C 284.00466 566.59643 283.16514 562.6976 282.08594 560 C 279.9434 554.64528 279.94463 554.59151 282.11328 555.41602 C 286.20488 556.97163 283.10741 551.00724 276.99414 545.55859 C 274.81641 543.61762 273.17203 541.91889 273.33984 541.7832 C 273.50758 541.64744 278.01074 538.5842 283.34766 534.97656 C 288.68454 531.36897 293.05078 528.29256 293.05078 528.14062 C 293.05078 527.70481 288.37028 530.20798 280.57617 534.8125 C 270.62551 540.6911 269.62315 540.99702 264.2168 539.80469 L 259.80273 538.83203 L 270.25195 528.57031 C 275.99891 522.92608 284.51226 514.71661 289.16992 510.32812 C 293.82758 505.93964 296.52644 503.07926 295.16797 503.9707 C 291.09579 506.64287 281.37565 515.06212 269.5 526.20508 C 263.33967 531.9853 257.83284 536.9857 257.26172 537.31641 C 256.13859 537.96766 245.0625 538.587 245.0625 538 C 245.0625 536.60755 252.90267 523.00606 259.2793 513.33398 C 267.18527 501.34298 267.83823 499.17072 260.94531 507.78906 C 256.60078 513.22115 250.24091 523.49814 245.59961 532.58594 L 242.59375 538.4707 L 229.07617 538.47461 L 215.55664 538.47852 L 212.01562 533.71484 C 206.57288 526.39371 186.82793 507.2632 179.97852 502.67383 C 177.02013 500.69162 175.80006 500.74639 169.26953 503.15625 C 165.2206 504.65052 161.06037 504.68436 158.4082 503.24609 C 157.25076 502.61843 168.06449 485.55507 186.36719 459.12695 C 205.81346 431.04756 210.55951 423.18368 216.09766 409.85938 C 221.11199 397.79527 223.21601 387.76263 224.56836 369.46289 C 226.51066 343.17934 224.83886 314.93337 219.64258 286.24805 C 215.94083 265.81302 213.44148 258.16099 210.04883 256.87109 C 209.02982 256.48367 208.22741 256.29785 207.5332 256.35156 z "
         transform="scale(0.26458333)"
         id="path3964" />
      <path
         id="path3736"
         style="fill:#ffaaaa;stroke-width:0.1889881"
         d="m 55.276771,172.1885 c -0.56309,-0.15371 -1.48194,-0.54159 -2.04188,-0.86196 -2.42157,-1.38548 -6.66721,-4.97422 -6.66721,-5.63563 0,-0.40332 0.68251,-1.05518 1.38247,-1.32038 1.43376,-0.54324 3.32228,0.0403 5.57169,1.72163 0.55057,0.41152 1.09758,0.71604 1.21557,0.67671 0.11801,-0.0393 -0.26867,-0.59715 -0.85929,-1.23958 -0.59061,-0.64244 -1.07383,-1.22289 -1.07383,-1.28989 0,-0.067 0.39707,-0.0674 0.88239,-8e-4 1.88862,0.25887 3.2881,1.6214 4.95374,4.82296 0.44181,0.84923 0.77645,1.73165 0.74363,1.96094 -0.0728,0.50842 -1.259,1.1915 -2.32753,1.34029 -0.42461,0.0591 -1.20469,-0.0172 -1.77975,-0.17421 z m -15.47506,-47.40467 c 0.32193,-4.62325 1.59877,-7.96093 14.82105,-38.742569 0.4084,-0.950764 0.66843,2.190557 0.7006,8.463786 l 0.0512,9.975703 -2.91104,5.62544 c -2.59755,5.01964 -11.82356,18.64639 -12.62456,18.64639 -0.17246,0 -0.18921,-1.78594 -0.0372,-3.96875 z m -14.96909,4.34673 c -3.30376,-7.07618 -4.81981,-14.32091 -6.47787,-30.95578 -0.84359,-8.463428 -1.52855,-15.846406 -1.52214,-16.406619 0.0204,-1.783479 5.33052,8.288031 7.75725,14.71291 2.21057,5.852599 2.3551,6.893899 2.64308,19.042349 0.16755,7.06815 0.1725,14.04181 0.011,15.49702 l -0.29365,2.64583 z" />
      <path
         id="path3803"
         style="fill:#ff6600;stroke-width:0.37797621"
         d="m 100.6728,132.88724 c -0.12263,-0.31957 0.0778,-0.91333 0.4453,-1.31946 0.66282,-0.73241 0.67819,-0.7323 1.88584,0.0141 0.66967,0.41387 1.53768,0.76771 1.92891,0.7863 0.72583,0.0345 -2.6717,1.07958 -3.55275,1.09284 -0.26638,0.004 -0.58467,-0.25418 -0.7073,-0.57375 z m 5.90549,34.74104 c -2.22217,-1.38032 -3.74328,-5.1941 -4.71087,-11.8112 -0.44918,-3.07184 -0.51232,-4.41476 -0.22127,-4.70581 0.59954,-0.59954 0.50066,-0.93145 -0.35875,-1.20422 -1.20122,-0.38125 -1.810607,-1.65814 -2.253634,-4.72221 -0.225367,-1.55876 -0.491837,-3.21681 -0.592137,-3.68456 -0.151197,-0.70514 -0.0197,-0.85045 0.769777,-0.85045 1.264454,0 1.198894,-0.42382 -0.1876,-1.2128 -1.328281,-0.75586 -1.884058,-1.99728 -1.884058,-4.20836 0,-1.56724 0.811664,-3.27229 1.557731,-3.27229 0.20952,0 0.820774,0.52271 1.358341,1.16158 0.92319,1.09715 1.08431,1.14804 2.90491,0.9176 1.06013,-0.13419 2.22504,-0.32814 2.58868,-0.43101 0.90799,-0.25684 1.49719,1.32337 1.63809,4.39332 0.0921,2.00582 0.24702,2.51074 0.85359,2.78139 0.99476,0.44388 2.23414,2.76126 1.74068,3.25472 -0.20559,0.2056 -1.64588,0.54949 -3.20063,0.76422 -2.27208,0.3138 -2.99372,0.57969 -3.67727,1.3549 -1.07208,1.21584 -1.065,1.6346 0.0555,3.28581 0.49829,0.73428 1.02868,1.90612 1.17865,2.60409 0.40882,1.9028 0.78602,2.43314 2.21165,3.10965 1.70933,0.81113 3.05456,0.77735 5.7323,-0.14393 1.24752,-0.42921 2.35215,-0.61744 2.53724,-0.43235 0.62202,0.62203 0.40363,4.2151 -0.30371,4.9967 -0.79838,0.8822 -0.46664,0.94536 0.75636,0.14402 1.08783,-0.71277 1.30337,-0.43941 1.59499,2.02284 0.25946,2.19068 -0.34675,3.57688 -2.32309,5.31213 -1.25568,1.1025 -1.55597,1.18929 -4.08255,1.17997 -1.80595,-0.007 -3.05004,-0.2106 -3.68296,-0.60375 z" />
      <path
         id="path3812"
         style="fill:#ff0000;stroke-width:0.1889881"
         d="m 64.001808,151.51929 c -0.0618,-0.59892 -0.0649,-1.32648 -0.007,-1.61679 0.11166,-0.55829 0.73701,-1.25827 0.94146,-1.05382 0.13903,0.13903 -0.40591,3.01559 -0.65589,3.46229 -0.11725,0.2095 -0.19954,-0.0242 -0.27875,-0.79168 z m -4.99276,16.67815 c -0.51752,-0.98747 -1.38372,-2.28761 -1.92491,-2.88922 -1.15976,-1.28923 -3.4743,-2.19812 -4.37293,-1.71719 -0.33896,0.18141 -1.47842,0.22772 -2.53214,0.10292 -1.5438,-0.18283 -2.17794,-0.0723 -3.2654,0.56935 l -1.34953,0.79624 -1.17749,-1.05209 -1.1775,-1.05209 4.6249,-3.11625 c 3.99054,-2.68881 4.81375,-3.10049 6.0017,-3.00135 1.36111,0.11358 1.38675,0.14716 2.25202,2.94971 1.42493,4.61522 1.489,4.69675 3.86151,4.91369 1.91152,0.17478 2.05743,0.25588 1.94183,1.07926 -0.14644,1.04298 -1.45945,4.2124 -1.74508,4.2124 -0.10783,0 -0.61948,-0.80792 -1.13698,-1.79538 z" />
      <path
         id="path3815"
         style="fill:#008000;stroke-width:0.1889881"
         d="m 111.88331,173.86829 c 0.007,-2.67994 0.083,-5.04272 0.16817,-5.2506 0.14329,-0.34968 0.17096,-0.33721 0.36946,0.16657 0.33253,0.84394 0.59779,2.15126 0.76365,3.76353 0.16203,1.5751 0.23324,1.76196 0.58792,1.54276 0.27214,-0.16819 0.11139,-3.10896 -0.27076,-4.95315 -0.23768,-1.14699 -0.17465,-1.43076 0.20986,-0.94494 0.54515,0.68878 2.32264,7.71297 2.37681,9.39256 l 0.0338,1.04903 -2.12611,0.0534 -2.12612,0.0534 z" />
      <path
         id="path3838"
         style="fill:#b3b3b3;stroke-width:0.26726952"
         d="m 76.637773,180.5933 c -1.20921,-0.37947 -8.00118,-1.49542 -10.38081,-1.70562 -2.08167,-0.18389 -2.09802,-0.19127 -2.48725,-1.12282 -0.59875,-1.43301 -0.40247,-2.06908 0.67014,-2.17172 2.09148,-0.20015 4.48591,0.49873 8.50702,2.48299 4.76936,2.35351 6.13309,3.28355 3.6909,2.51717 z m -24.71144,-0.66619 c -0.70684,-0.80505 -0.81385,-1.09711 -0.66047,-1.80255 0.50008,-2.3 0.90254,-2.51924 2.15869,-1.17593 0.79083,0.84571 1.96529,2.62544 1.96529,2.97813 0,0.19128 -0.7964,0.52037 -1.91135,0.78981 -0.58658,0.14175 -0.85393,0.006 -1.55216,-0.78946 z m -12.04439,-48.13652 c 0.63838,-0.72524 1.05937,-1.44589 0.99298,-1.69977 -0.0681,-0.26032 0.91931,-1.85102 2.41206,-3.88591 4.32706,-5.89855 7.70996,-10.83243 9.11811,-13.29855 3.66984,-6.42704 4.95918,-14.151668 3.90938,-23.421673 -0.25803,-2.278473 -0.54414,-5.706203 -0.6358,-7.61718 -0.18823,-3.924125 -0.14305,-3.96875 -1.48801,1.46998 -1.43775,5.813989 -2.62314,8.88804 -8.76026,22.717903 -1.98957,4.48345 -4.04214,9.41457 -4.56127,10.95805 -0.85614,2.54546 -2.31727,8.46804 -2.31727,9.39289 0,0.20624 -0.96217,1.33152 -2.13815,2.5006 -1.9992,1.98747 -2.63016,2.23015 -1.73726,0.66818 0.21008,-0.3675 0.38623,-0.89169 0.39144,-1.16487 0.008,-0.401 -0.1227,-0.46352 -0.67652,-0.32452 -0.6806,0.17082 -0.68466,0.16213 -0.51773,-1.10693 0.95918,-7.29198 2.06326,-10.59977 8.7789,-26.30132 4.07768,-9.533843 6.08843,-14.825407 9.22959,-24.288989 2.3527,-7.088148 3.04431,-8.610727 3.62907,-7.989326 0.82104,0.87249 1.94219,5.893451 2.83218,12.68364 0.74127,5.655541 0.83101,16.371044 0.16804,20.064375 -0.90916,5.06482 -2.8088,9.6508 -5.96833,14.40831 -6.42838,9.67965 -11.17941,16.63046 -11.63793,17.02641 -0.2979,0.25725 -0.89934,0.46772 -1.33654,0.46772 h -0.79492 z m -2.38975,22.65816 c -0.15217,-0.28434 -0.27668,-0.88569 -0.27668,-1.33635 0,-0.78025 -0.774,-1.88846 -1.31895,-1.88846 -0.70748,0 -1.80109,0.67459 -3.12791,1.92944 l -1.47678,1.39668 0.18931,-2.82611 c 0.1313,-1.96018 0.0905,-3.12552 -0.13318,-3.80327 -0.55892,-1.69354 -1.85316,-1.90585 -3.44628,-0.56533 -0.44131,0.37134 -0.85823,0.58185 -0.92651,0.4678 -0.17781,-0.29701 -1.51956,-4.6001 -1.51956,-4.87334 0,-0.12565 0.27061,-0.15872 0.60136,-0.0735 0.48855,0.12589 0.54717,0.0836 0.3125,-0.22547 -0.15887,-0.20924 -1.11414,-1.4497 -2.12282,-2.75657 -3.2079,-4.15623 -6.40293,-9.86481 -7.96356,-14.22852 -1.43026,-3.9992 -1.7563,-6.47094 -2.85112,-21.61489 -1.1417,-15.792363 -1.63687,-20.2857 -3.4600927,-31.398128 -0.44478,-2.710908 -0.45848,-3.154244 -0.11778,-3.81308 0.4586507,-0.88692 0.8076207,-0.767217 2.2713527,0.779105 4.97033,5.250792 15.29595,24.063987 17.78337,32.401163 0.64489,2.1615 0.69866,2.799 0.90387,10.7172 0.12001,4.63044 0.22661,11.91688 0.23689,16.19208 0.0103,4.2752 0.10823,7.86262 0.21765,7.97205 0.10943,0.10943 0.32996,-1.00652 0.49006,-2.47988 0.22473,-2.06805 0.43699,-2.89175 0.93095,-3.61264 0.35191,-0.51358 0.67973,-0.89392 0.72847,-0.84517 0.0487,0.0487 -0.0884,0.73297 -0.30477,1.52051 -0.69421,2.52682 -0.74318,2.9021 -0.37832,2.89899 0.18655,-0.002 0.75793,-0.73021 1.26975,-1.61915 0.51182,-0.88894 1.32365,-1.91606 1.80407,-2.2825 0.48042,-0.36644 0.87349,-0.60575 0.87349,-0.53181 0,0.0739 -0.54122,0.90865 -1.20271,1.85492 -0.66149,0.94628 -1.20271,1.79394 -1.20271,1.8837 0,0.37987 0.6616,0.0968 2.17342,-0.92983 0.88525,-0.60117 1.67471,-1.02787 1.75435,-0.94822 0.0796,0.0796 -0.29044,0.65328 -0.82241,1.27476 -1.11457,1.30213 -1.21676,1.70651 -0.36585,1.44778 1.72643,-0.52494 2.62851,-0.66879 4.2095,-0.67127 2.26843,-0.004 2.81113,0.16281 3.18131,0.97526 0.25235,0.55384 0.37619,0.6149 0.70076,0.34553 0.31992,-0.26551 0.39424,-0.24545 0.39424,0.10644 0,0.23849 0.11368,0.43363 0.25262,0.43363 0.13895,0 0.28929,-0.57129 0.33409,-1.26953 0.0705,-1.098 0.15304,-1.257 0.6112,-1.17676 0.61841,0.1083 2.09885,1.1095 1.91397,1.29439 -0.0694,0.0694 -0.37698,-0.008 -0.68356,-0.1722 -0.80278,-0.42963 -0.73512,0.18554 0.23087,2.09917 1.10417,2.18733 3.46231,5.19785 7.21854,9.21554 1.77016,1.89338 3.21848,3.53065 3.21848,3.63838 0,0.10773 -0.58651,0.74449 -1.30336,1.41501 -1.32882,1.24295 -2.72218,1.83057 -5.23377,2.20721 -1.55442,0.2331 -1.78146,0.0404 -3.14321,-2.668 -1.59604,-3.17437 -3.54232,-5.92237 -5.71458,-8.06854 -2.10133,-2.07608 -4.68244,-3.57471 -6.15681,-3.57471 -3.46492,0 -1.17132,6.73024 4.44133,13.03244 1.30211,1.4621 1.73968,2.12335 1.49548,2.26001 -0.26262,0.14697 -4.6418,1.01099 -5.12408,1.01099 -0.0491,0 -0.21372,-0.23263 -0.36589,-0.51696 z m 16.78247,-4.36071 c 1.02375,-0.82278 1.52217,-1.48617 1.29058,-1.71775 -0.16207,-0.16207 -2.8481,2.03093 -2.8481,2.32533 0,0.4587 0.44851,0.28374 1.55752,-0.60758 z m -0.75571,-1.41256 c 0,-0.21533 -0.0962,-0.39151 -0.21381,-0.39151 -0.33656,0 -0.85526,0.60546 -0.85526,0.9983 0,0.27404 0.12405,0.29047 0.53454,0.0708 0.29399,-0.15734 0.53453,-0.46225 0.53453,-0.67757 z m -19.78746,-6.23802 c -0.005,-0.0919 -0.17901,-0.87674 -0.38617,-1.74415 -0.68336,-2.86139 0.0192,-4.08536 2.19566,-3.82498 0.7005,0.0838 1.50052,0.24021 1.77782,0.34757 0.36772,0.14237 0.4707,0.0932 0.38045,-0.18147 -0.18272,-0.55622 -2.06749,-1.10634 -3.26247,-0.95224 -1.72237,0.22212 -2.15042,0.88984 -2.26011,3.5256 -0.0519,1.24697 -0.0314,2.43135 0.0456,2.63196 0.13539,0.35284 1.52845,0.53532 1.50921,0.19771 z m -4.67717,-5.85392 c -0.37965,-1.10194 -0.54718,-4.78218 -0.93346,-20.50554 -0.13723,-5.58594 -0.3768,-10.93801 -0.53239,-11.8935 -0.65952,-4.05034 -4.25188,-13.241049 -7.27057,-18.601063 -2.8495,-5.0596 -5.57025,-9.596339 -5.80321,-9.676617 -0.13164,-0.04536 -0.12713,0.364628 0.0103,0.935445 1.39839,5.80865 2.17919,11.609277 3.05086,22.665028 0.81915,10.389687 1.69907,16.119337 3.3714,21.953097 1.89683,6.61686 4.72294,12.54873 7.27229,15.26418 1.06093,1.13006 1.26107,1.09625 0.83479,-0.14103 z m 74.188687,11.92529 c -0.64425,-1.05672 -0.70487,-2.16608 -0.1438,-2.63173 0.22146,-0.1838 1.51438,-0.44383 2.87315,-0.57784 1.83028,-0.18053 3.17519,-0.51797 5.18986,-1.30217 1.49566,-0.58218 2.95829,-1.05851 3.2503,-1.05851 0.48609,0 1.91478,1.37583 1.91478,1.84393 0,0.39391 -6.33807,2.93112 -8.95432,3.58452 -1.46955,0.36701 -2.87747,0.74999 -3.12871,0.85107 -0.33501,0.13477 -0.60198,-0.0543 -1.00126,-0.70927 z m 11.91018,5.76685 c -0.28985,-0.75532 -0.17314,-1.36218 0.40277,-2.09433 0.90456,-1.14995 0.36615,-1.12221 -1.16635,0.0601 -2.16904,1.6734 -3.49512,2.17703 -5.75023,2.18385 -1.82176,0.005 -2.00016,-0.0478 -2.88964,-0.86292 -0.69951,-0.64106 -0.98685,-1.15836 -1.09618,-1.97349 -0.21821,-1.62686 0.36616,-2.08678 3.15192,-2.48072 1.76181,-0.24913 2.81248,-0.6016 4.91368,-1.64839 3.28212,-1.63511 4.39259,-1.86587 5.18167,-1.07679 1.16904,1.16904 0.5883,4.62603 -1.18365,7.04591 -0.99026,1.35237 -1.30466,1.52259 -1.56399,0.84677 z m 1.55346,5.04989 c -0.38378,-0.85444 -0.71634,-1.90627 -0.73902,-2.33741 -0.0375,-0.71305 0.14766,-0.89043 2.04903,-1.9629 1.9837,-1.11891 2.10863,-1.15391 2.45047,-0.68643 0.34044,0.46558 0.36871,0.45597 0.51553,-0.17525 0.0854,-0.36732 0.27323,-1.96759 0.41734,-3.55616 0.14495,-1.59793 0.45966,-3.30484 0.70442,-3.82064 1.08159,-2.27927 5.88542,-3.94837 7.19596,-2.50024 0.4859,0.53691 0.44085,0.65326 -2.6646,6.88219 -1.73737,3.48482 -3.35434,6.55988 -3.59325,6.83346 -0.4272,0.48917 -3.87138,2.32809 -5.04076,2.69136 -0.5284,0.16414 -0.67785,0.006 -1.29512,-1.36798 z m -23.204407,22.83825 c 1.877009,-2.80427 5.608579,-10.24715 5.847989,-11.66422 0.196431,-1.16264 -0.37747,-3.62475 -1.10301,-4.73206 -0.6009,-0.91708 -0.84368,-3.35713 -0.59268,-5.95652 0.3795,-3.93011 0.33581,-6.80764 -0.11666,-7.6826 -0.50778,-0.98194 -2.508399,-2.84626 -4.537179,-4.22804 -1.72827,-1.17711 -2.08896,-1.93695 -1.41078,-2.97198 0.9953,-1.51901 3.44213,-2.29594 5.078059,-1.6124 0.75336,0.31477 0.97053,0.59229 1.20518,1.54007 0.66102,2.67004 0.89263,3.3497 1.4997,4.40078 0.486251,0.84189 0.875238,2.52412 1.626598,7.03438 0.96788,5.8099 0.97861,5.95278 0.53919,7.17885 -0.48705,1.35891 -0.59644,3.39806 -0.19559,3.6458 0.13756,0.085 0.32571,-0.41904 0.4181,-1.12013 0.42176,-3.20049 0.46214,-3.22555 1.69031,-1.04937 1.247,2.20956 2.22582,3.03136 4.39556,3.6904 l 1.90628,0.57901 -1.10295,0.95986 c -1.322,1.15051 -2.75824,3.90521 -3.83935,7.36385 -0.42255,1.35179 -0.98096,2.64879 -1.24091,2.88221 -0.98242,0.88218 -9.261127,3.94365 -10.664257,3.94365 h -0.87718 z m 34.184017,-0.0782 c -0.58799,-0.3627 -2.18141,-1.10081 -3.54092,-1.64023 -1.35951,-0.53942 -2.43256,-1.02003 -2.38456,-1.06804 0.19482,-0.19482 10.40051,-2.52105 10.72467,-2.44452 0.5085,0.12004 -3.00709,5.85017 -3.57108,5.82059 -0.0875,-0.005 -0.64012,-0.3051 -1.22811,-0.6678 z m 22.1269,22.56657 c -2.96987,-0.26472 -8.19351,-1.40572 -9.07265,-1.98176 -0.54706,-0.35844 -0.59256,-0.49846 -0.32773,-1.00847 0.16914,-0.32573 2.39282,-3.37018 4.9415,-6.76545 6.01924,-8.01864 8.56384,-12.05381 7.25486,-11.50457 -0.48459,0.20333 -3.25737,1.04402 -7.684,2.32974 -2.13147,0.61909 -4.05177,1.1914 -4.26733,1.2718 -0.78313,0.29209 5.85205,-8.63024 8.67032,-11.65899 l 1.42019,-1.52625 4.36397,-0.0914 c 4.88815,-0.10233 5.89891,0.0831 7.33709,1.34581 2.58871,2.27292 2.5561,5.50476 -0.14236,14.11081 -1.80433,5.75446 -1.97462,6.41721 -1.64881,6.41721 0.1329,0 0.43516,-0.29537 0.67171,-0.65639 0.30111,-0.45955 0.99213,-0.82378 2.30423,-1.21454 1.03078,-0.30698 4.24628,-1.62769 7.14556,-2.93492 2.89928,-1.30724 5.31073,-2.33748 5.35877,-2.28945 0.048,0.048 -0.63617,1.03271 -1.52044,2.18816 -0.89571,1.17039 -2.77612,4.34985 -4.24579,7.17893 -3.1178,6.00172 -3.50347,6.39137 -6.73824,6.80798 -2.36427,0.30449 -10.31761,0.29398 -13.82085,-0.0183 z m -121.222637,5.35049 c -1.62941,-0.26065 -2.83413,-0.9687 -3.62756,-2.13203 -0.53874,-0.7899 -0.60644,-1.1358 -0.47562,-2.43018 0.32553,-3.22083 1.61286,-5.38412 9.86544,-16.57847 2.88584,-3.91455 5.61257,-7.69382 6.05938,-8.39838 1.02027,-1.60879 1.09046,-2.33257 0.1396,-1.43928 l -0.6728,0.63206 -2.43326,-0.46645 c -5.3956,-1.03433 -9.71163,-2.82284 -12.11687,-5.02109 -2.57467,-2.3531 -2.66568,-2.65573 -2.76476,-9.19299 -0.0658,-4.33828 0.008,-6.02715 0.32228,-7.38242 0.42932,-1.85119 1.68052,-4.94194 1.90836,-4.71409 0.0737,0.0737 0.002,1.62561 -0.15999,3.44876 -0.29761,3.35628 -0.10789,10.93201 0.27377,10.93201 0.10949,0 0.27531,-2.6159 0.36848,-5.81311 0.21147,-7.25668 0.76618,-10.22766 2.38985,-12.79972 0.35905,-0.56877 0.96942,-1.20356 1.35638,-1.41066 0.62708,-0.3356 0.76197,-0.32369 1.24071,0.10956 0.99889,0.90398 0.65786,5.93227 -0.78513,11.57638 -0.67614,2.64465 -1.07678,8.94657 -0.58799,9.24866 0.21452,0.13258 0.30664,-0.19871 0.30664,-1.1028 0,-2.15795 0.51878,-5.72191 1.10033,-7.55912 0.81432,-2.57259 2.55078,-5.73583 3.73695,-6.80747 1.21935,-1.1016 1.38897,-1.13157 2.14212,-0.37841 0.67716,0.67716 0.60819,1.54823 -0.46316,5.84953 -0.76849,3.08534 -1.13509,7.9568 -0.68552,9.10931 0.22559,0.57833 0.73922,0.8485 3.16603,1.66537 1.59321,0.53628 4.43249,1.33687 6.30952,1.77909 5.47147,1.28905 6.34256,1.93606 6.34256,4.71098 0,2.21905 -0.48727,3.45532 -2.50094,6.34524 -0.93846,1.34683 -2.5184,4.07245 -3.51098,6.05693 -2.43215,4.86262 -4.89173,9.3582 -7.25824,13.26648 -1.08031,1.78414 -1.9642,3.33233 -1.9642,3.44042 0,0.82243 3.14284,-3.66464 6.27306,-8.95609 2.44408,-4.1316 3.59787,-5.82845 5.94488,-8.743 3.22641,-4.0066 5.71467,-5.7545 8.22497,-5.7777 2.65074,-0.0245 4.76686,1.91341 7.02398,6.43242 0.82691,1.65559 1.66915,3.01016 1.87164,3.01016 0.20248,0 1.89267,0.98795 3.75595,2.19545 6.06131,3.92799 10.64239,5.89224 15.81584,6.78141 3.64878,0.62712 16.306457,0.39639 21.118427,-0.38496 4.17935,-0.67863 8.0934,-1.60695 11.88152,-2.81801 2.19024,-0.70022 2.98653,-0.85611 3.14718,-0.61613 0.37249,0.55642 1.8329,-1.40777 8.40547,-11.30496 7.18547,-10.82011 9.1622,-13.54116 11.79801,-16.24047 4.09639,-4.19507 9.50575,-6.52509 12.52072,-5.39315 0.91874,0.34493 2.7114,2.06452 5.22242,5.00956 1.80239,2.11392 5.04243,4.94629 6.91105,6.04148 0.91953,0.53894 0.90055,0.57573 0.37164,-0.72046 -0.0774,-0.18975 0.41773,-1.06171 1.10036,-1.93771 0.68262,-0.87599 2.01256,-3.18268 2.95543,-5.12597 1.69055,-3.48431 1.72971,-3.53741 2.82703,-3.83289 2.78333,-0.74947 7.66999,0.86379 10.42646,3.44215 2.26286,2.11663 2.99699,4.43285 2.00841,6.3366 -0.68642,1.32186 -4.23788,5.20152 -6.59925,7.20911 -2.91914,2.48178 -4.94551,3.87376 -7.7411,5.31763 -2.04542,1.05642 -5.96037,2.56682 -6.65317,2.56682 -0.13965,0 -0.0239,-1.10427 0.25911,-2.47225 0.75513,-3.64986 0.76943,-6.73019 0.0376,-8.10313 -0.70197,-1.31692 -2.47021,-2.9656 -3.48469,-3.24904 -0.40795,-0.11398 -2.75627,-0.20094 -5.21849,-0.19324 -3.50637,0.011 -4.47677,-0.0615 -4.47677,-0.33409 0,-0.69434 -0.53931,-0.31345 -2.06157,1.45599 -4.0825,4.7454 -6.92716,8.65253 -11.91867,16.37026 -8.4027,12.99199 -12.50677,16.02123 -24.68941,18.22335 -3.26702,0.59054 -4.00577,0.61894 -15.986978,0.61446 -11.867189,-0.004 -12.746359,-0.0381 -15.902529,-0.60859 -6.96001,-1.25809 -10.98761,-2.51017 -14.05545,-4.36947 -2.82449,-1.71182 -8.29772,-7.05053 -8.04252,-7.84484 0.0475,-0.14774 1.00307,-0.63268 2.12356,-1.07765 2.30218,-0.91424 2.91879,-1.34639 1.53281,-1.07425 -3.80627,0.74736 -9.04599,3.46077 -19.64688,10.17424 -4.93401,3.12467 -7.85239,4.75607 -9.21823,5.15309 -1.39018,0.40409 -3.44314,0.53011 -4.88322,0.29976 z" />
      <path
         id="path3879"
         style="fill:#ffffff;stroke-width:0.26726952"
         d="m 64.545464,147.17264 c 0.002,-0.42121 3.01222,-3.57842 3.79953,-3.98555 1.46607,-0.75813 1.40698,-0.002 -0.10615,1.35851 -1.64089,1.4753 -3.69512,2.93644 -3.69338,2.62704 z m 98.165836,42.40608 c 0,-0.83524 1.26234,-1.68717 4.2054,-2.83815 5.87354,-2.29702 10.26967,-5.19707 14.6371,-9.65582 5.50722,-5.62238 6.01693,-8.42778 2.19562,-12.08444 -2.65975,-2.54514 -4.92718,-3.40767 -9.7972,-3.72682 -2.68275,-0.17581 -2.68829,-0.17763 -2.68829,-0.88165 0,-1.18616 0.76856,-3.79934 1.6501,-5.6105 0.54682,-1.12344 1.57963,-2.49291 2.98074,-3.95234 1.72396,-1.79571 2.56686,-2.44016 4.30242,-3.28938 1.18713,-0.58088 2.69964,-1.12819 3.36113,-1.21624 l 1.20272,-0.1601 -2.52038,2.36226 c -2.7708,2.59697 -5.25562,5.99423 -4.36181,5.9635 0.11025,-0.004 0.61116,-0.61225 1.11315,-1.35213 2.22658,-3.28177 6.80345,-6.4651 10.35548,-7.2025 1.8497,-0.384 3.77415,-0.0424 5.19299,0.9217 0.92425,0.62805 2.1653,2.59817 2.4784,3.93437 0.19955,0.85162 -0.23859,1.02291 -2.63613,1.0306 -2.2436,0.007 -3.30644,0.36438 -5.5397,1.86175 -1.80488,1.21014 -3.76419,2.95126 -3.3211,2.95126 0.106,0 1.07476,-0.60108 2.1528,-1.33574 3.02527,-2.06164 4.20542,-2.50169 6.72542,-2.50775 3.57017,-0.009 4.93003,1.27317 4.92389,4.64113 -0.009,4.87843 -3.23311,10.4323 -10.01943,17.2589 -5.56991,5.60297 -9.74041,8.78729 -14.89939,11.37619 -4.34062,2.17823 -11.69393,4.38656 -11.69393,3.5119 z m -6.5481,19.836 c -6.93203,-0.87162 -13.91495,-2.31252 -15.90115,-3.28115 -1.11156,-0.54209 -1.57619,-1.59046 -1.1345,-2.55987 l 0.29885,-0.6559 2.38358,0.76652 c 3.23618,1.0407 5.48304,1.25733 15.21604,1.46703 l 8.34638,0.17983 1.33823,-0.98235 c 1.21012,-0.88831 1.53889,-1.38615 3.43403,-5.20004 3.66494,-7.37552 6.44174,-10.81828 10.22616,-12.67867 1.68647,-0.82906 2.34634,-0.99935 4.39022,-1.13299 3.06146,-0.20016 5.29988,0.17607 7.50442,1.26136 2.41589,1.18934 5.21378,3.85095 6.67859,6.35329 1.47885,2.52631 1.52881,3.20532 0.1042,1.41608 -1.38505,-1.73956 -3.8919,-3.63576 -6.26913,-4.74204 -1.96793,-0.9158 -4.94448,-1.80545 -4.94448,-1.47784 0,0.10593 1.32847,0.76979 2.95216,1.47523 1.62369,0.70545 3.64359,1.79163 4.48867,2.41374 3.0504,2.24557 5.17945,5.94022 4.74809,8.23959 -0.21343,1.13769 -2.00204,3.23414 -3.34281,3.91814 -1.12551,0.5742 -4.01726,1.45683 -4.19398,1.2801 -0.0655,-0.0655 0.069,-0.92982 0.29875,-1.92073 0.37605,-1.62151 0.37702,-1.94205 0.01,-3.20587 -0.65185,-2.24229 -3.43986,-4.54899 -6.96341,-5.76127 -0.85761,-0.29506 -1.60918,-0.48659 -1.67015,-0.42561 -0.061,0.061 1.01113,0.68904 2.38246,1.3957 3.13792,1.61703 4.81145,3.21484 5.26856,5.0302 0.6726,2.67114 -0.37491,4.77895 -3.09565,6.22909 -1.81964,0.96986 -3.7766,1.47365 -8.76676,2.25686 -4.54609,0.71352 -19.15991,0.92337 -23.78698,0.34157 z M 53.544734,142.7106 c -2.83613,-3.00645 -5.5509,-6.95382 -5.09558,-7.40914 0.8352,-0.8352 7.85044,6.00315 8.86159,8.63817 0.0964,0.25129 -0.0212,0.31928 -0.38693,0.22364 -0.28902,-0.0756 -0.60629,-0.007 -0.70506,0.15314 -0.3625,0.58653 -0.92391,0.24939 -2.67402,-1.60581 z m -7.0175,9.49432 c -0.79561,-1.01763 -2.38534,-1.9853 -3.26152,-1.9853 -0.29255,0 -0.65073,0.21047 -0.79597,0.46772 -0.23603,0.41808 -0.38092,0.35425 -1.36502,-0.60135 -1.36378,-1.32429 -3.60167,-4.77212 -4.44573,-6.84935 -1.38389,-3.40579 -0.3577,-4.88316 2.46296,-3.54585 1.5745,0.74649 4.95502,4.1272 6.5987,6.59908 1.83127,2.75398 3.48103,6.00855 3.2935,6.49725 -0.0786,0.20486 -0.50239,0.37246 -0.94173,0.37246 -0.5985,0 -0.98597,-0.23939 -1.54519,-0.95466 z m 6.0332,23.12184 c -0.43962,-0.17169 -0.76191,-0.54646 -0.85826,-0.998 -0.21295,-0.998 -1.09245,-2.34861 -1.85453,-2.84795 -0.34976,-0.22917 -2.92488,-1.00744 -5.72248,-1.72946 -7.28982,-1.88143 -9.85049,-3.34025 -8.49406,-4.83909 0.81798,-0.90385 11.99149,-6.39188 12.32821,-6.05517 0.0638,0.0638 -2.05398,1.52901 -4.70619,3.25599 -4.12229,2.68424 -5.32417,3.60817 -4.69361,3.60817 0.0707,0 0.90768,-0.3842 1.85994,-0.85377 l 1.73136,-0.85378 1.41411,1.0007 c 0.77776,0.55038 2.91751,2.19168 4.75499,3.64733 3.92008,3.10549 6.11655,4.31859 8.12018,4.48474 1.29189,0.10714 1.5007,0.0427 2.3886,-0.73687 1.29166,-1.13409 2.72571,-3.54127 3.53899,-5.94053 0.36365,-1.07279 1.08008,-2.74988 1.59206,-3.72687 l 0.93088,-1.77633 v -4.44957 c 0,-3.23034 0.1197,-4.92609 0.43684,-6.18864 0.41937,-1.66951 0.48886,-1.76543 1.73726,-2.39804 1.35093,-0.68457 1.74439,-1.24149 0.69905,-0.98949 -0.77406,0.18661 -0.52382,-0.0634 1.63302,-1.63172 1.9075,-1.38699 2.39167,-1.47639 3.68082,-0.67965 1.00518,0.62123 1.1268,0.83666 0.43245,0.76603 -0.87059,-0.0886 -0.87742,0.0118 -0.10552,1.55078 0.42394,0.84524 0.85654,1.83747 0.96133,2.20497 0.18323,0.6426 0.16508,0.63749 -0.4743,-0.13357 l -0.66483,-0.80175 0.10909,2.9399 c 0.10879,2.93168 0.0339,3.30206 -0.28371,1.40311 -0.24005,-1.43523 -0.5919,-1.23806 -0.9539,0.53454 -0.36956,1.80958 -1.71327,5.39939 -2.93069,7.82955 -0.97983,1.9559 -3.51813,5.91407 -3.68534,5.74686 -0.0607,-0.0607 0.0339,-0.54737 0.21024,-1.08156 0.70279,-2.12948 -0.0547,-1.0288 -2.14855,3.12177 -2.57747,5.10936 -2.95729,5.69315 -4.08654,6.28113 -1.01148,0.52667 -5.8103,0.76062 -6.89691,0.33624 z m 2.43713,-19.82857 c -0.007,-2.00497 -0.0267,-2.01134 -4.0597,-1.32882 -5.28934,0.89515 -12.52998,1.93016 -13.44237,1.92152 -1.27505,-0.0121 -0.21082,-0.48583 2.07024,-0.9216 2.37759,-0.4542 12.85983,-1.87277 17.11969,-2.31681 l 3.12708,-0.32595 v -0.80295 -0.80295 l -0.56485,0.60631 c -0.42859,0.46003 -0.73472,0.56366 -1.26899,0.42957 -0.92556,-0.2323 -0.97963,-0.30979 -0.56484,-0.80958 0.63257,-0.7622 1.32303,-0.99802 1.7912,-0.61177 0.38609,0.31853 0.41017,0.20501 0.24905,-1.17396 -0.14509,-1.24172 -1.04715,-4.56702 -1.7014,-6.27198 -0.10707,-0.279 0.45967,-0.35315 2.69941,-0.35315 2.44529,0 2.83492,0.06 2.83492,0.4368 0,0.24024 -0.54122,1.57933 -1.20271,2.97575 -0.66149,1.39642 -1.20271,2.69315 -1.20271,2.88161 0,0.18847 0.48108,0.72369 1.06908,1.18939 0.58799,0.4657 1.06907,1.07716 1.06907,1.35881 0,0.76007 -0.96077,1.58115 -1.85016,1.58115 -0.60154,0 -1.04694,0.30323 -1.9377,1.31919 -1.2887,1.46983 -2.39451,2.15121 -3.49523,2.15367 -0.68614,0.002 -0.73526,-0.0739 -0.73908,-1.13425 z m 2.9789,8.20213 c -0.29617,-0.37652 -0.80617,-1.84296 -1.13333,-3.25877 -0.56887,-2.46176 -0.57387,-2.58654 -0.11461,-2.85674 0.26412,-0.1554 1.13877,-0.81054 1.94365,-1.45587 1.02634,-0.82288 1.52319,-1.07663 1.66351,-0.84959 0.11004,0.17806 0.35834,1.16253 0.55178,2.18772 0.19344,1.02519 0.46764,1.93564 0.60933,2.0232 0.24348,0.15048 0.20668,-0.49565 -0.24069,-4.22606 -0.14443,-1.20433 -0.12575,-1.24408 0.724,-1.5403 0.5334,-0.18595 0.96815,-0.20818 1.11911,-0.0572 0.46336,0.46336 0.98125,3.36468 0.98543,5.52062 0.004,1.97496 -0.062,2.2423 -0.79875,3.24413 -1.45539,1.97902 -4.22936,2.64197 -5.30943,1.26888 z m 27.89482,35.12354 c -4.61311,-0.588 -9.68969,-2.46353 -14.5171,-5.3633 -3.65261,-2.19408 -6.24657,-4.63274 -8.40415,-7.901 -1.81222,-2.74513 -3.25835,-4.24227 -4.92956,-5.10349 -1.05577,-0.54406 -2.26059,-1.71306 -3.23768,-3.14141 l -0.57094,-0.83464 0.99626,-0.16469 c 0.54794,-0.0906 1.66664,-0.16601 2.48601,-0.16762 1.27123,-0.002 1.68274,-0.14016 2.80547,-0.93839 0.72365,-0.51449 1.39094,-0.93544 1.48287,-0.93544 0.0919,0 0.24799,0.51115 0.34679,1.13589 0.19909,1.25888 2.17058,5.54585 2.55042,5.54585 0.13257,0 0.27948,-0.27061 0.32645,-0.60136 0.082,-0.57752 0.18603,-0.60036 2.62447,-0.57611 3.11569,0.031 5.84104,0.57888 11.22532,2.25673 5.16816,1.6105 7.9025,2.31529 10.25146,2.64236 1.61122,0.22434 2.69524,0.55469 1.82021,0.55469 -0.1715,0 -0.31182,0.1353 -0.31182,0.30068 0,0.48072 1.16192,0.13989 7.27034,-2.13266 3.130736,-1.16474 6.949336,-2.43338 8.485766,-2.8192 5.67193,-1.42433 11.5809,-1.43482 15.95227,-0.0283 2.35525,0.75781 5.13036,2.18331 5.53285,2.84209 0.207,0.3388 -0.18871,1.12497 -1.79825,3.57263 -3.12453,4.75155 -4.10727,5.98605 -5.43618,6.82882 -2.2017,1.39628 -8.78417,3.28666 -14.79835,4.24984 -6.01679,0.9636 -15.749246,1.33934 -20.152926,0.77804 z m -6.28483,-13.06993 c -2.07593,-1.59565 -6.97639,-3.51299 -9.92534,-3.88336 -2.11727,-0.26592 -1.38268,0.19449 2.17852,1.36539 1.69048,0.55583 4.213,1.52613 5.60559,2.15624 2.56299,1.15968 3.35299,1.29314 2.14123,0.36173 z m -44.04279,-23.45302 c 0.0734,-1.13895 0.16871,-1.29972 1.01638,-1.7136 1.18725,-0.57967 12.04028,-3.72294 12.51738,-3.6253 0.19614,0.0401 -0.46535,0.42187 -1.46998,0.8483 -1.00463,0.42642 -4.14818,1.89405 -6.98566,3.2614 l -5.15907,2.48608 z m 0.3623,-2.88811 c 5.3e-4,-0.19947 0.2257,-0.73116 0.50034,-1.18153 l 0.49934,-0.81886 5.87608,-0.8785 c 3.23185,-0.48318 6.10368,-0.83224 6.38185,-0.7757 0.27817,0.0565 -2.44088,0.93007 -6.04234,1.94117 -3.60145,1.01109 -6.69843,1.89184 -6.88218,1.95723 -0.18375,0.0654 -0.33364,-0.0443 -0.33309,-0.24381 z m 26.45868,-11.28971 c 0,-0.55229 1.73766,-4.47943 2.14525,-4.84829 0.30144,-0.2728 0.82825,-0.399 1.44172,-0.34536 l 0.96671,0.0845 -2.16995,2.53906 c -2.57991,3.01875 -2.38373,2.80724 -2.38373,2.57008 z" />
    </g>
  </g>
</svg>
